<?xml version="1.0" encoding="UTF-8" standalone="no"?>
<!-- Created with Inkscape (http://www.inkscape.org/) -->

<svg
   xmlns:dc="http://purl.org/dc/elements/1.1/"
   xmlns:cc="http://creativecommons.org/ns#"
   xmlns:rdf="http://www.w3.org/1999/02/22-rdf-syntax-ns#"
   xmlns:svg="http://www.w3.org/2000/svg"
   xmlns="http://www.w3.org/2000/svg"
   xmlns:sodipodi="http://sodipodi.sourceforge.net/DTD/sodipodi-0.dtd"
   xmlns:inkscape="http://www.inkscape.org/namespaces/inkscape"
   width="711.12012"
   height="284.44"
   id="svg3377"
   version="1.1"
   inkscape:version="0.48.4 r9939"
   sodipodi:docname="logo.svg"
   inkscape:export-filename="/home/pivarski/diana/awkward-array/docs/source/logo-1000.png"
   inkscape:export-xdpi="126.56"
   inkscape:export-ydpi="126.56">
  <defs
     id="defs3379" />
  <sodipodi:namedview
     id="base"
     pagecolor="#ffffff"
     bordercolor="#666666"
     borderopacity="1.0"
     inkscape:pageopacity="0.0"
     inkscape:pageshadow="2"
     inkscape:zoom="1.4"
     inkscape:cx="405.8629"
     inkscape:cy="112.76041"
     inkscape:document-units="px"
     inkscape:current-layer="text3385"
     showgrid="false"
     inkscape:object-nodes="true"
     fit-margin-top="20"
     fit-margin-left="20"
     fit-margin-right="20"
     fit-margin-bottom="20"
     inkscape:window-width="1331"
     inkscape:window-height="1027"
     inkscape:window-x="583"
     inkscape:window-y="0"
     inkscape:window-maximized="0" />
  <metadata
     id="metadata3382">
    <rdf:RDF>
      <cc:Work
         rdf:about="">
        <dc:format>image/svg+xml</dc:format>
        <dc:type
           rdf:resource="http://purl.org/dc/dcmitype/StillImage" />
        <dc:title></dc:title>
      </cc:Work>
    </rdf:RDF>
  </metadata>
  <g
     inkscape:label="Layer 1"
     inkscape:groupmode="layer"
     id="layer1"
     transform="translate(29.0051,-312.19766)">
    <g
       style="font-size:144px;font-style:normal;font-variant:normal;font-weight:bold;font-stretch:normal;text-align:center;line-height:125%;letter-spacing:0px;word-spacing:0px;text-anchor:middle;color:#000000;fill:#bcbcbc;fill-opacity:1;fill-rule:nonzero;stroke:none;stroke-width:10;marker:none;visibility:visible;display:inline;overflow:visible;enable-background:accumulate;font-family:DejaVu Sans;-inkscape-font-specification:Sans Bold"
       id="text3385">
      <path
         inkscape:connector-curvature="0"
         d="m 44.1309,346.70864 -32.688,76.32 c -6.6239934,15.55198 -11.9520085,21.168 -20.448,22.032 l 0,7.776 41.616,0 0,-7.776 c -10.36799,-0.576 -14.4,-3.31201 -14.4,-9.936 0,-2.448 0.432002,-4.032 2.304,-8.208 l 2.304,-5.472 37.856,0 5.472,14.112 c 1.151999,2.592 -0.272,4.752 -0.272,5.904 0,2.592 -1.872007,3.456 -8.352,3.456 l -2.448,0.144 0,7.776 50.544,0 0,-7.776 c -8.207992,-0.288 -10.512003,-1.72801 -13.536,-9.072 l -37.008,-89.28 -10.944,0 m -1.024,30.672 13.968,34.416 -30.512,0 14.544,-34.416"
         style="color:#000000;fill:#bcbcbc;fill-opacity:1;fill-rule:nonzero;stroke:none;stroke-width:10;marker:none;visibility:visible;display:inline;overflow:visible;enable-background:accumulate;font-family:Century Schoolbook L;-inkscape-font-specification:Century Schoolbook L Bold"
         id="path3392"
         sodipodi:nodetypes="ccccccsccccscccccccccccc" />
      <path
         d="m 174.20764,430.66064 -13.248,-32.112 c -0.576,-1.296 -0.864,-2.448 -0.864,-3.168 0,-2.304 2.30401,-3.312 7.776,-3.312 l 1.008,0 0,-7.344 -40.176,0 0,7.344 c 5.32799,0 6.912,1.008 8.784,5.472 l 3.6,8.64 -10.368,24.48 -12.528,-31.824 c -1.008,-2.592 -1.008,-2.592 -1.008,-3.312 0,-2.736 1.29601,-3.312 7.056,-3.456 l 0,-7.344 -39.743999,0 0,7.344 c 5.61599,0.288 7.632,2.01601 10.224,8.064 l 23.471999,54.72 10.944,0 16.416,-37.872 15.408,37.872 10.8,0 22.608,-50.544 c 4.176,-9.21599 7.05601,-11.808 13.536,-12.24 l 0,-7.344 -32.544,0 0,7.344 1.008,0 c 6.04799,0 9.936,2.592 9.936,6.624 0,1.728 -0.576,4.032 -2.016,7.488 l -10.08,24.48"
         style="color:#000000;fill:#bcbcbc;fill-opacity:1;fill-rule:nonzero;stroke:none;stroke-width:10;marker:none;visibility:visible;display:inline;overflow:visible;enable-background:accumulate;font-family:Century Schoolbook L;-inkscape-font-specification:Century Schoolbook L Bold"
         id="path3394"
         inkscape:connector-curvature="0" />
      <path
         id="path3396"
         style="color:#000000;fill:#bcbcbc;fill-opacity:1;fill-rule:nonzero;stroke:none;stroke-width:10;marker:none;visibility:visible;display:inline;overflow:visible;enable-background:accumulate;font-family:Century Schoolbook L;-inkscape-font-specification:Century Schoolbook L Bold"
         d="m 229.14288,341.97283 -34.05271,6.28271 0.87938,7.29117 2.71632,-0.32762 c 8.72079,-1.0518 9.21866,-0.53166 10.75326,12.19212 l 7.48334,62.04635 0.81041,6.7193 c 0.6897,5.71855 -0.77945,6.76602 -10.0721,7.88679 l -0.57186,0.069 0.87938,7.29116 43.60401,-5.25902 -0.87938,-7.29116 c -8.2919,1.00007 -9.84225,0.17174 -10.53196,-5.54681 l -0.79316,-6.57634 -0.4828,-4.00299 5.86939,-6.65468 c 4.86129,3.51641 9.75254,6.99062 14.64619,10.46169 1.65018,1.2651 3.02924,2.0891 3.57344,3.26531 0.78608,1.69895 -0.48962,3.39986 -3.88754,4.97201 l -1.3069,0.60466 3.08383,6.66515 39.99095,-18.50297 -3.08384,-6.66515 c -4.57412,2.11635 -6.17362,1.74573 -15.37056,-3.04301 -8.09068,-5.22443 -16.29141,-10.26968 -24.50261,-15.30079 l 9.90469,-10.47738 c 5.25801,-5.71069 9.19708,-7.9263 14.6297,-8.58152 l 3.28817,-0.39658 -0.87938,-7.29116 -42.0314,5.06936 0.87938,7.29116 1.71556,-0.20691 c 5.43263,-0.65522 8.75027,0.39507 9.06064,2.96842 0.20691,1.71557 -0.58693,3.55184 -2.88439,6.14963 l -13.97128,19.09343 -8.46617,-70.1953"
         inkscape:connector-curvature="0"
         sodipodi:nodetypes="cccsscscccccsccccsscccccccsccccssccc" />
      <path
         d="m 380.94643,427.43202 -9.74461,-33.34265 c -0.43438,-1.35008 -0.59776,-2.52624 -0.52091,-3.24212 0.24594,-2.29084 2.64437,-3.04715 8.0851,-2.46306 l 1.00225,0.10759 0.7839,-7.30204 -39.94646,-4.28846 -0.78391,7.30204 c 5.29754,0.56871 6.76491,1.74004 8.14972,6.37835 l 2.65718,8.97491 -12.9218,23.23344 -9.05947,-32.97943 c -0.72558,-2.6848 -0.72558,-2.6848 -0.64872,-3.40068 0.29205,-2.72037 1.64214,-3.15474 7.38459,-2.68309 l 0.78391,-7.30204 -39.51693,-4.24234 -0.78391,7.30204 c 5.55316,0.88581 7.3732,2.81915 9.30482,9.10926 l 17.49698,56.91281 10.88149,1.16818 20.36472,-35.90336 11.27746,39.30031 10.73829,1.15281 27.874,-47.842 c 5.13587,-8.7176 8.2761,-10.98737 14.76517,-10.72522 l 0.78392,-7.30204 -32.35807,-3.4738 -0.78391,7.30204 1.00224,0.10758 c 6.01344,0.64558 9.60256,3.63778 9.17218,7.64674 -0.18445,1.71813 -1.0031,3.94748 -2.80376,7.23003 L 380.94643,427.432"
         style="color:#000000;fill:#bcbcbc;fill-opacity:1;fill-rule:nonzero;stroke:none;stroke-width:10;marker:none;visibility:visible;display:inline;overflow:visible;enable-background:accumulate;font-family:Century Schoolbook L;-inkscape-font-specification:Century Schoolbook L Bold"
         id="path3398"
         inkscape:connector-curvature="0" />
      <path
         d="m 649.73104,346.70864 -36.432,2.16 0,7.344 4.608,0 c 8.78399,0 9.216,0.57601 9.216,13.392 l 0,22.608 c -5.47199,-6.62399 -11.95201,-9.648 -21.024,-9.648 -18.43198,0 -32.832,16.27202 -32.832,37.296 0,20.87998 12.81602,35.136 31.536,35.136 10.36799,0 17.71201,-3.88801 23.616,-12.528 l 0,10.368 33.696,-1.584 0,-7.776 -3.888,0 c -5.18399,0 -5.616,0 -6.768,-1.008 -1.296,-1.152 -1.728,-2.88 -1.728,-7.2 l 0,-88.56 m -37.008,45.648 c 8.92799,0 14.688,10.36802 14.688,26.352 0,15.69598 -6.04801,26.496 -14.976,26.496 -9.07199,0 -14.256,-9.21602 -14.256,-25.632 0,-17.13598 5.32801,-27.216 14.544,-27.216"
         style="color:#000000;fill:#bcbcbc;fill-opacity:1;fill-rule:nonzero;stroke:none;stroke-width:10;marker:none;visibility:visible;display:inline;overflow:visible;enable-background:accumulate;font-family:Century Schoolbook L;-inkscape-font-specification:Century Schoolbook L Bold"
         id="path3404"
         inkscape:connector-curvature="0" />
      <path
         d="m 259.42345,502.51846 c -6.62399,15.55198 -11.952,21.168 -20.448,22.032 l 0,7.776 41.616,0 0,-7.776 c -10.36798,-0.576 -14.4,-3.31201 -14.4,-9.936 0,-2.448 0.43201,-4.032 2.304,-8.208 l 2.304,-5.472 37.856,0 5.472,14.112 c 1.152,2.592 1.728,4.752 1.728,5.904 0,2.592 -3.872,3.456 -10.352,3.456 l -2.448,0.144 0,7.776 50.544,0 0,-7.776 c -8.20799,-0.288 -10.512,-1.72801 -13.536,-9.072 l -42.90086,-86.42285 -8.97971,4.28571 m 2.90457,23.52914 13.968,34.416 -30.512,0 14.544,-34.416"
         style="color:#000000;fill:#bcbcbc;fill-opacity:1;fill-rule:nonzero;stroke:none;stroke-width:10;marker:none;visibility:visible;display:inline;overflow:visible;enable-background:accumulate;font-family:Century Schoolbook L;-inkscape-font-specification:Century Schoolbook L Bold"
         id="path3406"
         inkscape:connector-curvature="0"
         sodipodi:nodetypes="cccccsccccscccccccccccc" />
      <path
         d="m 575.40778,486.53446 c 0,-9.35999 -1.728,-13.824 -6.768,-17.856 -5.32799,-4.32 -14.40001,-6.624 -25.632,-6.624 -19.87198,0 -32.832,7.34401 -32.832,18.576 0,6.19199 5.04001,10.8 11.664,10.8 6.624,0 6.46205,-5.31875 5.50384,-9.40147 -0.95821,-4.08272 -0.33945,-5.05778 2.04514,-7.56286 2.38459,-2.50508 5.84303,-4.92367 11.60302,-4.92367 8.64,0 11.808,3.74401 11.808,13.68 l 0,7.488 c -1.58399,0.432 -3.456,0.864 -4.752,1.008 -14.54398,3.168 -19.584,4.464 -26.352,7.2 -10.51198,4.32 -15.408,10.08001 -15.408,18.72 0,10.65599 8.20802,16.848 22.176,16.848 12.38399,0 19.87201,-2.73601 27.504,-10.224 2.448,6.47999 7.92001,10.224 15.264,10.224 8.208,0 15.84,-5.76001 15.84,-11.952 0,-1.44 -0.864,-2.304 -2.16,-2.304 -0.86399,0 -1.728,0.288 -2.88,1.008 -1.29599,0.864 -1.728,1.008 -2.736,1.008 -3.16799,0 -3.888,-2.01601 -3.888,-10.368 l 0,-25.344 m -22.608,11.952 0,8.064 c 0,11.08799 -5.184,18.144 -13.248,18.144 -5.61599,0 -9.216,-3.88801 -9.216,-10.08 0,-7.63199 4.46402,-11.952 14.832,-14.4 l 7.632,-1.728"
         style="color:#000000;fill:#bcbcbc;fill-opacity:1;fill-rule:nonzero;stroke:none;stroke-width:10;marker:none;visibility:visible;display:inline;overflow:visible;enable-background:accumulate;font-family:Century Schoolbook L;-inkscape-font-specification:Century Schoolbook L Bold"
         id="path3412"
         inkscape:connector-curvature="0"
         sodipodi:nodetypes="ccssszzsscccsscssscssccssscc" />
      <path
         d="m 627.69904,509.57446 -15.264,-31.104 c -0.71999,-1.44 -1.152,-2.88 -1.152,-3.888 0,-2.016 1.58401,-3.024 5.04,-3.024 l 2.592,0 0,-7.344 -40.896,0 0,7.344 c 5.328,0.144 6.48001,1.008 8.784,5.76 l 29.52,57.312 c -5.44134,14.50568 -15.18539,28.38706 -24.60276,30.21521 -0.71999,0 -1.69739,0.24235 -1.296,-0.864 0.40139,-1.10635 1.29489,-2.18953 1.296,-3.328 0.006,-5.75999 -4.464,-9.792 -10.8,-9.792 -7.05599,0 -12.528,5.47201 -12.528,12.528 0,7.91999 7.05602,13.248 17.856,13.248 12.09599,0 29.78677,-21.99123 37.56276,-38.98321 l 25.2,-54.288 c 4.176,-8.78399 7.20001,-11.52 13.104,-11.808 l 0,-7.344 -32.4,0 0,7.344 1.584,0 c 6.192,0 9.648,2.016 9.648,5.76 0,1.584 -0.576,4.176 -1.296,5.904 l -11.952,26.352"
         style="color:#000000;fill:#bcbcbc;fill-opacity:1;fill-rule:nonzero;stroke:none;stroke-width:10;marker:none;visibility:visible;display:inline;overflow:visible;enable-background:accumulate;font-family:Century Schoolbook L;-inkscape-font-specification:Century Schoolbook L Bold"
         id="path3414"
         inkscape:connector-curvature="0"
         sodipodi:nodetypes="ccssccccccczssssccccccsscc" />
      <g
         style="font-size:139.29122925px;font-weight:normal;line-height:125%;color:#000000;fill:#bcbcbc;fill-opacity:1;fill-rule:nonzero;stroke:none;stroke-width:10;marker:none;visibility:visible;display:inline;overflow:visible;enable-background:accumulate;font-family:Liberation Serif;-inkscape-font-specification:Liberation Serif"
         id="text2999"
         transform="translate(26.428571,0)">
        <path
           id="path3007"
           style="color:#000000;fill:#bcbcbc;fill-opacity:1;fill-rule:nonzero;stroke:none;stroke-width:10;marker:none;visibility:visible;display:inline;overflow:visible;enable-background:accumulate;font-family:URW Bookman L;-inkscape-font-specification:URW Bookman L"
           d="m 435.57667,463.33058 -28.07139,1.89188 0,7.344 2.16,0 c 8.784,0 9.216,0.57601 9.216,13.968 l 0,25.056 0,6.624 c 0,5.90399 -1.584,6.768 -10.8,6.768 l -0.576,0 0,7.344 48.096,0 0,-7.344 -3.168,0 c -9.21599,0 -12.76429,-0.86401 -12.76429,-6.768 -0.0664,-3.50465 0.10209,-7.42552 -0.0607,-10.67831 0.48148,-6.5818 2.83776,-26.07463 12.81479,-31.37174 2.9954,-1.59035 7.45013,0.41787 9.95737,2.08937 2.36795,1.81078 4.59661,4.50724 7.10385,4.50724 4.59661,0 7.9396,-7.20371 7.9396,-11.66102 0,-4.59661 -4.17874,-7.80031 -10.16826,-7.80031 -12.01371,-0.99261 -24.88244,7.09205 -31.64735,12.57549 l 0.17991,-0.35847 c -0.12363,-3.74975 -0.1709,-7.51465 -0.1709,-11.30225"
           inkscape:connector-curvature="0"
           sodipodi:nodetypes="cccsscssccccsccscsscccc" />
      </g>
      <g
         transform="translate(-48.38374,0)"
         id="g3029"
         style="font-size:139.29122925px;font-weight:normal;line-height:125%;color:#000000;fill:#bcbcbc;fill-opacity:1;fill-rule:nonzero;stroke:none;stroke-width:10;marker:none;visibility:visible;display:inline;overflow:visible;enable-background:accumulate;font-family:Liberation Serif;-inkscape-font-specification:Liberation Serif">
        <path
           sodipodi:nodetypes="cccsscssccccsccscsscccc"
           inkscape:connector-curvature="0"
           d="m 435.57667,463.33058 -28.07139,1.89188 0,7.344 2.16,0 c 8.784,0 9.216,0.57601 9.216,13.968 l 0,25.056 0,6.624 c 0,5.90399 -1.584,6.768 -10.8,6.768 l -0.576,0 0,7.344 48.096,0 0,-7.344 -3.168,0 c -9.21599,0 -12.76429,-0.86401 -12.76429,-6.768 -0.0664,-3.50465 0.10209,-7.42552 -0.0607,-10.67831 0.48148,-6.5818 2.83776,-26.07463 12.81479,-31.37174 2.9954,-1.59035 7.45013,0.41787 9.95737,2.08937 2.36795,1.81078 4.59661,4.50724 7.10385,4.50724 4.59661,0 7.9396,-7.20371 7.9396,-11.66102 0,-4.59661 -4.17874,-7.80031 -10.16826,-7.80031 -12.01371,-0.99261 -24.88244,7.09205 -31.64735,12.57549 l 0.17991,-0.35847 c -0.12363,-3.74975 -0.1709,-7.51465 -0.1709,-11.30225"
           style="color:#000000;fill:#bcbcbc;fill-opacity:1;fill-rule:nonzero;stroke:none;stroke-width:10;marker:none;visibility:visible;display:inline;overflow:visible;enable-background:accumulate;font-family:URW Bookman L;-inkscape-font-specification:URW Bookman L"
           id="path3031" />
      </g>
      <g
         transform="translate(94.27418,-79.48982)"
         id="g3033"
         style="font-size:139.29122925px;font-weight:normal;line-height:125%;color:#000000;fill:#bcbcbc;fill-opacity:1;fill-rule:nonzero;stroke:none;stroke-width:10;marker:none;visibility:visible;display:inline;overflow:visible;enable-background:accumulate;font-family:Liberation Serif;-inkscape-font-specification:Liberation Serif">
        <path
           sodipodi:nodetypes="cccsscssccccsccscsscccc"
           inkscape:connector-curvature="0"
           d="m 435.57667,463.33058 -28.07139,1.89188 0,7.344 2.16,0 c 8.784,0 9.216,0.57601 9.216,13.968 l 0,25.056 0,6.624 c 0,5.90399 -1.584,6.768 -10.8,6.768 l -0.576,0 0,7.344 48.096,0 0,-7.344 -3.168,0 c -9.21599,0 -12.76429,-0.86401 -12.76429,-6.768 -0.0664,-3.50465 0.10209,-7.42552 -0.0607,-10.67831 0.48148,-6.5818 2.83776,-26.07463 12.81479,-31.37174 2.9954,-1.59035 7.45013,0.41787 9.95737,2.08937 2.36795,1.81078 4.59661,4.50724 7.10385,4.50724 4.59661,0 7.9396,-7.20371 7.9396,-11.66102 0,-4.59661 -4.17874,-7.80031 -10.16826,-7.80031 -12.01371,-0.99261 -24.88244,7.09205 -31.64735,12.57549 l 0.17991,-0.35847 c -0.12363,-3.74975 -0.1709,-7.51465 -0.1709,-11.30225"
           style="color:#000000;fill:#bcbcbc;fill-opacity:1;fill-rule:nonzero;stroke:none;stroke-width:10;marker:none;visibility:visible;display:inline;overflow:visible;enable-background:accumulate;font-family:URW Bookman L;-inkscape-font-specification:URW Bookman L"
           id="path3035" />
      </g>
      <path
         sodipodi:nodetypes="ccssszzsscccsscssscssccssscc"
         inkscape:connector-curvature="0"
         id="path3037"
         style="color:#000000;fill:#bcbcbc;fill-opacity:1;fill-rule:nonzero;stroke:none;stroke-width:10;marker:none;visibility:visible;display:inline;overflow:visible;enable-background:accumulate;font-family:Century Schoolbook L;-inkscape-font-specification:Century Schoolbook L Bold"
         d="m 486.97544,407.04464 c 0,-9.35999 -1.728,-13.824 -6.768,-17.856 -5.32799,-4.32 -14.40001,-6.624 -25.632,-6.624 -19.87198,0 -32.832,7.34401 -32.832,18.576 0,6.19199 5.04001,10.8 11.664,10.8 6.624,0 6.46205,-5.31875 5.50384,-9.40147 -0.95821,-4.08272 -0.33945,-5.05778 2.04514,-7.56286 2.38459,-2.50508 5.84303,-4.92367 11.60302,-4.92367 8.64,0 11.808,3.74401 11.808,13.68 l 0,7.488 c -1.58399,0.432 -3.456,0.864 -4.752,1.008 -14.54398,3.168 -19.584,4.464 -26.352,7.2 -10.51198,4.32 -15.408,10.08001 -15.408,18.72 0,10.65599 8.20802,16.848 22.176,16.848 12.38399,0 19.87201,-2.73601 27.504,-10.224 2.448,6.47999 7.92001,10.224 15.264,10.224 8.208,0 15.84,-5.76001 15.84,-11.952 0,-1.44 -0.864,-2.304 -2.16,-2.304 -0.86399,0 -1.728,0.288 -2.88,1.008 -1.29599,0.864 -1.728,1.008 -2.736,1.008 -3.16799,0 -3.888,-2.01601 -3.888,-10.368 l 0,-25.344 m -22.608,11.952 0,8.064 c 0,11.08799 -5.184,18.144 -13.248,18.144 -5.61599,0 -9.216,-3.88801 -9.216,-10.08 0,-7.63199 4.46402,-11.952 14.832,-14.4 l 7.632,-1.728" />
    </g>
  </g>
</svg>
