<?xml version="1.0" encoding="UTF-8" standalone="no"?>
<!-- Created with Inkscape (http://www.inkscape.org/) -->

<svg
   xmlns:dc="http://purl.org/dc/elements/1.1/"
   xmlns:cc="http://creativecommons.org/ns#"
   xmlns:rdf="http://www.w3.org/1999/02/22-rdf-syntax-ns#"
   xmlns:svg="http://www.w3.org/2000/svg"
   xmlns="http://www.w3.org/2000/svg"
   xmlns:sodipodi="http://sodipodi.sourceforge.net/DTD/sodipodi-0.dtd"
   xmlns:inkscape="http://www.inkscape.org/namespaces/inkscape"
   id="svg3020"
   version="1.1"
   inkscape:version="0.48.4 r9939"
   width="1341"
   height="208"
   sodipodi:docname="logo.png">
  <metadata
     id="metadata3026">
    <rdf:RDF>
      <cc:Work
         rdf:about="">
        <dc:format>image/svg+xml</dc:format>
        <dc:type
           rdf:resource="http://purl.org/dc/dcmitype/StillImage" />
        <dc:title></dc:title>
      </cc:Work>
    </rdf:RDF>
  </metadata>
  <defs
     id="defs3024" />
  <sodipodi:namedview
     pagecolor="#ffffff"
     bordercolor="#666666"
     borderopacity="1"
     objecttolerance="10"
     gridtolerance="10"
     guidetolerance="10"
     inkscape:pageopacity="0"
     inkscape:pageshadow="2"
     inkscape:window-width="1914"
     inkscape:window-height="1027"
     id="namedview3022"
     showgrid="false"
     inkscape:zoom="0.93542687"
     inkscape:cx="744.69259"
     inkscape:cy="93.527608"
     inkscape:window-x="0"
     inkscape:window-y="0"
     inkscape:window-maximized="0"
     inkscape:current-layer="svg3020" />
  <path
     style="color:#000000;fill:none;stroke:#000000;stroke-width:2;stroke-linecap:butt;stroke-linejoin:miter;stroke-miterlimit:4;stroke-opacity:1;stroke-dasharray:none;stroke-dashoffset:0;marker:none;visibility:visible;display:inline;overflow:visible;enable-background:accumulate"
     d="M 6.8032695,155.27466 26.0792,137.88853 38.173901,103.6832 50.646561,25.634583 41.575536,16.563557 56.504932,15.429678 85.418828,8.626409 l -7.748168,9.260006 11.716741,72.757187 11.338779,49.134728 10.01593,10.2049 -43.654314,6.04735 16.819194,-18.89797 -6.80327,-27.59104 -23.433483,3.96858 -13.795519,26.0792 4.157554,16.63021 z"
     id="path3030"
     inkscape:connector-curvature="0" />
  <path
     style="color:#000000;fill:none;stroke:#000000;stroke-width:2;stroke-linecap:butt;stroke-linejoin:miter;stroke-miterlimit:4;stroke-opacity:1;stroke-dasharray:none;stroke-dashoffset:0;marker:none;visibility:visible;display:inline;overflow:visible;enable-background:accumulate"
     d="m 154.01846,76.848083 -37.41798,10.393884 15.30736,21.165723 23.62246,53.1033 31.18165,-29.66981 6.80327,29.29185 33.82737,-55.37105 18.89797,-12.283682 -36.47309,-17.575113 0.56694,21.165727 -11.1498,20.598788 -20.22083,-25.323281 -18.14205,34.772271 -14.9294,-23.81145 z"
     id="path3032"
     inkscape:connector-curvature="0" />
  <path
     style="color:#000000;fill:none;stroke:#000000;stroke-width:2;stroke-linecap:butt;stroke-linejoin:miter;stroke-miterlimit:4;stroke-opacity:1;stroke-dasharray:none;stroke-dashoffset:0;marker:none;visibility:visible;display:inline;overflow:visible;enable-background:accumulate"
     d="m 250.39811,16.185597 12.28368,9.826945 6.99225,67.276776 -6.80327,52.347382 -11.33878,12.0947 33.82737,7.55919 -8.12613,-18.52002 8.50409,-41.38655 21.92164,29.29185 -8.50408,22.67757 42.14247,-24.1894 -18.70899,-4.7245 -24.37838,-34.961242 30.61471,-30.047774 16.06328,9.071026 -20.22083,-38.74084 -6.04735,17.764093 -30.23676,21.165727 -11.33878,-45.922069 14.9294,-20.7877679 z"
     id="path3034"
     inkscape:connector-curvature="0" />
  <path
     style="color:#000000;fill:none;stroke:#000000;stroke-width:2;stroke-linecap:butt;stroke-linejoin:miter;stroke-miterlimit:4;stroke-opacity:1;stroke-dasharray:none;stroke-dashoffset:0;marker:none;visibility:visible;display:inline;overflow:visible;enable-background:accumulate"
     d="m 347.3447,87.241967 15.11838,22.110623 22.67756,52.53636 31.55961,-29.29185 6.61429,28.72491 35.33921,-56.88289 17.57511,-11.149802 -36.2841,-17.008174 0.37796,20.787768 -10.58287,20.598788 -20.78776,-24.567362 -18.14206,33.827372 -14.55143,-24.00043 8.3151,-26.079197 z"
     id="path3036"
     inkscape:connector-curvature="0" />
  <path
     style="color:#000000;fill:none;stroke:#000000;stroke-width:2;stroke-linecap:butt;stroke-linejoin:miter;stroke-miterlimit:4;stroke-opacity:1;stroke-dasharray:none;stroke-dashoffset:0;marker:none;visibility:visible;display:inline;overflow:visible;enable-background:accumulate"
     d="m 483.78805,63.619504 -3.96857,37.229006 15.30735,-17.764096 12.28368,-2.456737 23.81145,14.362458 0.18898,15.685315 -19.84287,-1.8898 -27.21308,30.23676 20.59879,20.22083 33.44941,-5.85838 19.27593,8.50409 -11.71675,-24.1894 -0.75592,-44.788192 -25.51226,-27.402057 -27.59103,6.992249 z"
     id="path3038"
     inkscape:connector-curvature="0" />
  <path
     style="color:#000000;fill:none;stroke:#000000;stroke-width:2;stroke-linecap:butt;stroke-linejoin:miter;stroke-miterlimit:4;stroke-opacity:1;stroke-dasharray:none;stroke-dashoffset:0;marker:none;visibility:visible;display:inline;overflow:visible;enable-background:accumulate"
     d="m 522.90685,124.28199 8.88205,14.36246 -23.81145,-2.64572 z"
     id="path3040"
     inkscape:connector-curvature="0" />
  <path
     style="color:#000000;fill:none;stroke:#000000;stroke-width:2;stroke-linecap:butt;stroke-linejoin:miter;stroke-miterlimit:4;stroke-opacity:1;stroke-dasharray:none;stroke-dashoffset:0;marker:none;visibility:visible;display:inline;overflow:visible;enable-background:accumulate"
     d="M 62.363303,31.870913 76.158822,78.92686 53.481257,92.15544 z"
     id="path3042"
     inkscape:connector-curvature="0" />
  <path
     style="color:#000000;fill:none;stroke:#000000;stroke-width:2;stroke-linecap:butt;stroke-linejoin:miter;stroke-miterlimit:4;stroke-opacity:1;stroke-dasharray:none;stroke-dashoffset:0;marker:none;visibility:visible;display:inline;overflow:visible;enable-background:accumulate"
     d="m 562.78157,79.304819 17.76409,-3.023675 0.18898,48.567786 -17.19715,17.19715 34.96124,15.8743 -4.34653,-30.04778 6.99225,-49.890638 18.52001,0 10.77184,23.811438 19.08695,-30.236749 -15.87429,1.322858 -26.45716,-17.008173 -23.81144,8.315107 z"
     id="path3044"
     inkscape:connector-curvature="0" />
  <path
     style="color:#000000;fill:none;stroke:#000000;stroke-width:2;stroke-linecap:butt;stroke-linejoin:miter;stroke-miterlimit:4;stroke-opacity:1;stroke-dasharray:none;stroke-dashoffset:0;marker:none;visibility:visible;display:inline;overflow:visible;enable-background:accumulate"
     d="m 698.84696,13.161922 15.49633,9.071026 -4.91347,76.347802 -35.52818,-5.669392 -17.19716,18.331032 -1.32286,25.70124 18.709,19.08695 58.01677,6.23633 28.53593,-4.72449 -22.48858,-9.63797 -10.39389,-43.08737 3.02368,-78.426579 14.92939,-21.3547064 z"
     id="path3046"
     inkscape:connector-curvature="0" />
  <path
     style="color:#000000;fill:none;stroke:#000000;stroke-width:2;stroke-linecap:butt;stroke-linejoin:miter;stroke-miterlimit:4;stroke-opacity:1;stroke-dasharray:none;stroke-dashoffset:0;marker:none;visibility:visible;display:inline;overflow:visible;enable-background:accumulate"
     d="m 715.85513,116.34484 -41.0086,4.72449 30.8037,23.24451 z"
     id="path3048"
     inkscape:connector-curvature="0" />
  <path
     style="color:#000000;fill:none;stroke:#000000;stroke-width:2;stroke-linecap:butt;stroke-linejoin:miter;stroke-miterlimit:4;stroke-opacity:1;stroke-dasharray:none;stroke-dashoffset:0;marker:none;visibility:visible;display:inline;overflow:visible;enable-background:accumulate"
     d="m 885.18095,16.752536 9.63796,8.504087 -13.0396,82.206177 -11.90572,29.85879 -19.46491,18.33103 38.1739,1.70082 -4.72449,-17.00818 13.60654,-26.83511 23.62246,-3.59062 6.42531,26.26818 -16.63021,19.46491 44.03227,-5.48041 -9.63797,-9.63797 -11.1498,-48.189821 -11.90572,-74.835964 7.74817,-9.4489851 -33.26043,7.3702081 z"
     id="path3050"
     inkscape:connector-curvature="0" />
  <path
     style="color:#000000;fill:none;stroke:#000000;stroke-width:2;stroke-linecap:butt;stroke-linejoin:miter;stroke-miterlimit:4;stroke-opacity:1;stroke-dasharray:none;stroke-dashoffset:0;marker:none;visibility:visible;display:inline;overflow:visible;enable-background:accumulate"
     d="M 906.34668,31.870913 920.70913,79.11584 897.84259,91.96646 z"
     id="path3052"
     inkscape:connector-curvature="0" />
  <path
     style="color:#000000;fill:none;stroke:#000000;stroke-width:2;stroke-linecap:butt;stroke-linejoin:miter;stroke-miterlimit:4;stroke-opacity:1;stroke-dasharray:none;stroke-dashoffset:0;marker:none;visibility:visible;display:inline;overflow:visible;enable-background:accumulate"
     d="m 964.17447,79.871759 17.38613,-3.401635 -0.75592,48.756766 -16.63021,16.25225 34.77226,16.63022 -3.77959,-30.23676 6.61426,-50.268598 19.4649,1.511838 10.016,22.11063 18.8979,-29.669819 -15.1183,1.322858 -27.0241,-16.441234 -25.13434,8.126127 z"
     id="path3054"
     inkscape:connector-curvature="0" />
  <path
     style="color:#000000;fill:none;stroke:#000000;stroke-width:2;stroke-linecap:butt;stroke-linejoin:miter;stroke-miterlimit:4;stroke-opacity:1;stroke-dasharray:none;stroke-dashoffset:0;marker:none;visibility:visible;display:inline;overflow:visible;enable-background:accumulate"
     d="m 1059.0423,79.682779 17.3861,-3.023675 -0.3779,47.811866 -16.8192,17.38613 35.1502,16.06328 -4.3465,-29.29186 6.9922,-50.268599 19.2759,-0.18898 9.827,23.433479 19.0869,-29.858789 -15.3073,1.322858 -26.6462,-17.197153 -24.3784,8.693066 z"
     id="path3056"
     inkscape:connector-curvature="0" />
  <path
     style="color:#000000;fill:none;stroke:#000000;stroke-width:2;stroke-linecap:butt;stroke-linejoin:miter;stroke-miterlimit:4;stroke-opacity:1;stroke-dasharray:none;stroke-dashoffset:0;marker:none;visibility:visible;display:inline;overflow:visible;enable-background:accumulate"
     d="m 1155.044,62.863585 -3.9686,38.173905 14.7404,-17.953076 13.0396,-2.834696 22.4886,14.362458 1.3229,16.441234 -20.7878,-1.8898 -26.4572,30.42574 20.4098,19.46491 32.8825,-6.04735 20.4098,8.88204 -11.9057,-23.81144 -0.9449,-45.355131 -25.5123,-27.402058 -28.1579,6.42531 z"
     id="path3058"
     inkscape:connector-curvature="0" />
  <path
     style="color:#000000;fill:none;stroke:#000000;stroke-width:2;stroke-linecap:butt;stroke-linejoin:miter;stroke-miterlimit:4;stroke-opacity:1;stroke-dasharray:none;stroke-dashoffset:0;marker:none;visibility:visible;display:inline;overflow:visible;enable-background:accumulate"
     d="m 1178.6664,135.80975 15.3074,-12.47266 9.449,15.68532 z"
     id="path3060"
     inkscape:connector-curvature="0" />
  <path
     style="color:#000000;fill:none;stroke:#000000;stroke-width:2;stroke-linecap:butt;stroke-linejoin:miter;stroke-miterlimit:4;stroke-opacity:1;stroke-dasharray:none;stroke-dashoffset:0;marker:none;visibility:visible;display:inline;overflow:visible;enable-background:accumulate"
     d="m 1241.4077,153.57384 -12.8506,26.26818 10.5828,-2.83469 48.0009,14.92939 20.0318,-24.37838 15.8743,-81.639231 10.9609,-14.173478 -34.0164,-6.23633 10.2049,22.110626 -16.8192,47.244923 -28.3469,-41.953492 5.1024,-21.732666 -37.418,16.441235 22.2996,11.905721 26.6462,53.103302 0.189,22.86654 -30.6148,-6.99225 z"
     id="path3062"
     inkscape:connector-curvature="0" />
</svg>
