<?xml version="1.0" encoding="UTF-8" standalone="no"?>
<!-- Created with Inkscape (http://www.inkscape.org/) -->

<svg
   xmlns:dc="http://purl.org/dc/elements/1.1/"
   xmlns:cc="http://creativecommons.org/ns#"
   xmlns:rdf="http://www.w3.org/1999/02/22-rdf-syntax-ns#"
   xmlns:svg="http://www.w3.org/2000/svg"
   xmlns="http://www.w3.org/2000/svg"
   xmlns:sodipodi="http://sodipodi.sourceforge.net/DTD/sodipodi-0.dtd"
   xmlns:inkscape="http://www.inkscape.org/namespaces/inkscape"
   id="svg3020"
   version="1.1"
   inkscape:version="0.48.4 r9939"
   width="635.15137"
   height="347.59579"
   sodipodi:docname="logo.svg">
  <metadata
     id="metadata3026">
    <rdf:RDF>
      <cc:Work
         rdf:about="">
        <dc:format>image/svg+xml</dc:format>
        <dc:type
           rdf:resource="http://purl.org/dc/dcmitype/StillImage" />
        <dc:title></dc:title>
      </cc:Work>
    </rdf:RDF>
  </metadata>
  <defs
     id="defs3024" />
  <sodipodi:namedview
     pagecolor="#ffffff"
     bordercolor="#666666"
     borderopacity="1"
     objecttolerance="10"
     gridtolerance="10"
     guidetolerance="10"
     inkscape:pageopacity="0"
     inkscape:pageshadow="2"
     inkscape:window-width="1914"
     inkscape:window-height="1027"
     id="namedview3022"
     showgrid="false"
     inkscape:zoom="1.3228934"
     inkscape:cx="435.99561"
     inkscape:cy="146.84815"
     inkscape:window-x="0"
     inkscape:window-y="0"
     inkscape:window-maximized="0"
     inkscape:current-layer="svg3020"
     fit-margin-top="20"
     fit-margin-left="20"
     fit-margin-right="20"
     fit-margin-bottom="20" />
  <path
     style="color:#000000;fill:#bcbcbc;fill-opacity:1;fill-rule:nonzero;stroke:none;stroke-width:10;marker:none;visibility:visible;display:inline;overflow:visible;enable-background:accumulate"
     d="m 150.73041,91.731186 -37.41798,10.393884 15.30736,21.16572 14.5357,55.77588 31.18165,-29.66981 6.80327,29.29185 27.41319,-58.04363 9.81121,-13.88722 -27.38633,-15.971572 0.56694,21.165732 -4.73562,23.27136 -20.22083,-25.32328 -18.14205,34.77227 -5.84264,-26.48402 z"
     id="path3032"
     inkscape:connector-curvature="0"
     sodipodi:nodetypes="ccccccccccccccc" />
  <path
     style="color:#000000;fill:#bcbcbc;fill-opacity:1;fill-rule:nonzero;stroke:none;stroke-width:10;marker:none;visibility:visible;display:inline;overflow:visible;enable-background:accumulate"
     d="m 203.62438,30.755589 12.28368,9.826945 6.99225,67.276776 -6.80327,52.34739 -11.33878,12.0947 33.82737,7.55919 -8.12613,-18.52002 8.50409,-41.38655 21.92164,29.29185 -8.50408,22.67757 42.14247,-24.1894 -18.70899,-4.7245 -24.37838,-34.96125 24.73504,-36.996473 12.85619,-0.01574 -17.01374,-29.654079 -6.04735,17.764093 -24.35709,28.114426 -11.33878,-45.922069 14.9294,-20.787768 z"
     id="path3034"
     inkscape:connector-curvature="0"
     sodipodi:nodetypes="ccccccccccccccccccccc" />
  <path
     style="color:#000000;fill:#bcbcbc;fill-opacity:1;fill-rule:nonzero;stroke:none;stroke-width:10;marker:none;visibility:visible;display:inline;overflow:visible;enable-background:accumulate"
     d="m 391.61636,69.871285 -13.07792,23.375484 -17.88246,54.355831 -34.05558,-26.3484 -4.01575,29.20176 -34.63767,-44.33829 -18.50285,-9.531373 34.61548,-20.188672 1.48486,20.738114 6.73194,10.416581 18.50456,-26.32998 21.09803,32.06709 12.34402,-25.206936 -10.61678,-25.229927 z"
     id="path3036"
     inkscape:connector-curvature="0"
     sodipodi:nodetypes="ccccccccccccccc" />
  <path
     id="path3040"
     style="color:#000000;fill:#bcbcbc;fill-opacity:1;fill-rule:nonzero;stroke:none;stroke-width:10;marker:none;visibility:visible;display:inline;overflow:visible;enable-background:accumulate"
     d="m 468.01935,208.64999 0.3955,37.2576 13.93822,-17.16514 13.38687,-5.08152 15.48572,6.89249 -0.28115,15.68393 -19.77733,-2.4836 -28.84191,22.39025 19.98357,20.82904 34.4638,-1.80271 9.58468,8.22808 -1.67776,-19.71302 0.58662,-44.79073 -11.45865,-15.09059 -37.74297,3.97317 z m 42.27954,59.12137 -23.88004,1.93097 9.30848,-14.08984 z"
     inkscape:connector-curvature="0"
     sodipodi:nodetypes="cccccccccccccccccccc" />
  <path
     id="path3042"
     style="color:#000000;fill:#bcbcbc;fill-opacity:1;fill-rule:nonzero;stroke:none;stroke-width:10;marker:none;visibility:visible;display:inline;overflow:visible;enable-background:accumulate"
     d="M 71.23886,111.6906 96.132234,97.169458 80.988765,45.515708 z M 20,180.97715 41.159367,161.89224 54.435833,124.34473 68.127188,38.67003 58.169839,28.712681 74.557976,27.468011 106.29703,20 l -8.505237,10.164794 12.861577,79.866246 12.44668,53.93565 10.99458,11.20201 -47.919746,6.63823 18.462586,-20.74447 -7.468013,-30.28694 -25.723152,4.35634 -15.143469,28.62738 4.563785,18.25514 z"
     inkscape:connector-curvature="0"
     sodipodi:nodetypes="cccccccccccccccccccccc" />
  <path
     style="color:#000000;fill:#bcbcbc;fill-opacity:1;fill-rule:nonzero;stroke:none;stroke-width:10;marker:none;visibility:visible;display:inline;overflow:visible;enable-background:accumulate"
     d="m 456.42646,91.148514 17.76409,-3.023675 0.18898,48.567791 -17.19715,17.19714 34.96124,15.8743 -4.34653,-30.04777 6.99225,-49.890643 18.52001,0 10.77184,23.811443 19.08695,-30.236754 -15.87429,1.322858 -26.45716,-17.008173 -23.81144,8.315107 z"
     id="path3044"
     inkscape:connector-curvature="0" />
  <path
     id="path3048"
     style="color:#000000;fill:#bcbcbc;fill-opacity:1;fill-rule:nonzero;stroke:none;stroke-width:10;marker:none;visibility:visible;display:inline;overflow:visible;enable-background:accumulate"
     d="m 554.44303,170.92482 -30.8037,-23.24451 41.0086,-4.72449 z m -6.80327,-131.151926 15.49633,9.071026 -4.91347,76.3478 -35.52818,-5.66939 -17.19716,18.33104 -1.32286,25.70124 18.709,19.08695 58.01677,6.23633 28.53593,-4.72449 -22.48858,-9.63797 -10.39389,-43.08738 3.02368,-78.426577 14.92939,-21.354706 z"
     inkscape:connector-curvature="0"
     sodipodi:nodetypes="ccccsccccccccccccs" />
  <path
     id="path3052"
     style="color:#000000;fill:#bcbcbc;fill-opacity:1;fill-rule:nonzero;stroke:none;stroke-width:10;marker:none;visibility:visible;display:inline;overflow:visible;enable-background:accumulate"
     d="m 322.74884,178.93667 8.24302,28.47388 -19.35063,12.81772 z m -29.27701,-16.78629 18.67625,11.69338 -13.68252,61.09784 -8.57903,27.12019 -15.99467,17.4347 33.79955,-0.9641 -5.26784,-14.70518 10.27531,-24.56152 20.61573,-4.69429 7.36684,22.76761 -13.41974,18.25233 38.50602,-7.68007 -9.12821,-7.88344 -12.95198,-41.80909 -7.85658,-52.98249 6.22783,-8.8394 -38.49876,3.84164 z"
     inkscape:connector-curvature="0"
     sodipodi:nodetypes="cccccccccccccccccccccc" />
  <path
     style="color:#000000;fill:#bcbcbc;fill-opacity:1;fill-rule:nonzero;stroke:none;stroke-width:10;marker:none;visibility:visible;display:inline;overflow:visible;enable-background:accumulate"
     d="m 350.92658,204.11984 13.54219,-2.98358 13.54143,40.96978 -9.17482,13.50415 31.69891,-2.52663 -8.57691,-12.95163 -11.90014,-44.90462 16.70786,-4.39472 16.43995,11.63321 7.16973,-30.29099 -12.25106,5.5004 -29.00696,-1.95071 -17.00327,10.16316 z"
     id="path3054"
     inkscape:connector-curvature="0"
     sodipodi:nodetypes="cccccccccccccc" />
  <path
     style="color:#000000;fill:#bcbcbc;fill-opacity:1;fill-rule:nonzero;stroke:none;stroke-width:10;marker:none;visibility:visible;display:inline;overflow:visible;enable-background:accumulate"
     d="m 410.39677,211.24446 12.11518,5.17134 4.24716,26.09277 -7.3799,13.55321 33.09535,8.61457 -7.97714,-22.19864 -5.5828,-29.64361 19.84779,-10.90949 24.31027,6.93283 -0.0953,-16.9623 -13.13809,3.498 -22.50949,-5.38166 -19.91471,11.31104 z"
     id="path3056"
     inkscape:connector-curvature="0"
     sodipodi:nodetypes="cccccccccccccc" />
  <path
     id="path3060"
     style="color:#000000;fill:#bcbcbc;fill-opacity:1;fill-rule:nonzero;stroke:none;stroke-width:10;marker:none;visibility:visible;display:inline;overflow:visible;enable-background:accumulate"
     d="m 415.99494,117.37488 14.59803,-9.60154 6.90579,14.6585 z m -14.22739,-66.341255 -6.93039,33.247189 14.5923,-14.476999 11.73398,-1.32141 18.50366,14.667949 -0.31568,14.59231 -18.12936,-3.53514 -26.02954,24.401816 16.2143,18.97248 29.49093,-2.36304 17.16709,9.65638 -8.33682,-22.0331 3.25156,-40.011196 -19.99144,-26.418939 -25.36588,3.12112 z"
     inkscape:connector-curvature="0" />
  <path
     style="color:#000000;fill:#bcbcbc;fill-opacity:1;fill-rule:nonzero;stroke:none;stroke-width:10;marker:none;visibility:visible;display:inline;overflow:visible;enable-background:accumulate"
     d="m 517.98473,299.80272 -12.18359,22.82929 9.44723,-2.17678 41.9836,14.69975 18.4753,-20.93407 29.3089,-94.61326 10.13522,-12.19235 -29.88764,-6.57597 8.33502,19.87165 -16.3474,41.25611 -23.75991,-37.98533 5.19008,-19.05998 -33.60309,13.37267 19.34915,11.22423 21.90817,47.79254 -13.27043,43.13905 -26.8559,-7.13836 z"
     id="path3062"
     inkscape:connector-curvature="0"
     sodipodi:nodetypes="cccccccccccccccccc" />
</svg>
